<?xml version="1.0" standalone="no"?>
<!DOCTYPE svg PUBLIC "-//W3C//DTD SVG 20010904//EN"
 "http://www.w3.org/TR/2001/REC-SVG-20010904/DTD/svg10.dtd">
<svg version="1.0" xmlns="http://www.w3.org/2000/svg"
 width="104.000000pt" height="73.000000pt" viewBox="0 0 104.000000 73.000000"
 preserveAspectRatio="xMidYMid meet">
<metadata>
Created by potrace 1.16, written by Peter Selinger 2001-2019
</metadata>
<g transform="translate(0.000000,73.000000) scale(0.100000,-0.100000)"
fill="#000000" stroke="none">
<path d="M580 669 c-19 -28 -45 -59 -57 -69 -14 -10 -23 -29 -23 -44 0 -24 2
-25 20 -14 17 11 22 10 30 -2 5 -8 7 -17 4 -21 -2 -4 16 -15 40 -25 27 -11 42
-23 39 -31 -3 -7 -1 -13 4 -13 5 0 10 6 10 13 0 6 4 21 9 31 6 16 4 18 -9 13
-11 -4 -17 -1 -17 8 0 9 10 15 25 15 21 0 25 -5 25 -29 0 -18 8 -34 23 -44 18
-13 19 -16 5 -16 -10 -1 -18 4 -18 9 0 6 -5 10 -11 10 -5 0 -7 -4 -4 -10 3 -6
-5 -10 -19 -10 -14 0 -29 6 -33 14 -11 18 -65 44 -80 39 -8 -3 -13 3 -13 14
-1 17 -1 17 -15 -1 -22 -29 -22 -251 0 -242 8 3 15 3 15 0 0 -2 -10 -9 -22
-14 -18 -7 -19 -9 -5 -9 9 -1 17 -7 17 -15 0 -9 -7 -12 -19 -9 -15 4 -18 12
-15 31 4 26 3 26 -11 8 -14 -18 -15 -10 -15 88 0 70 -4 105 -10 101 -6 -4 -8
-11 -5 -16 3 -5 -1 -6 -10 -3 -8 4 -22 1 -30 -6 -10 -8 -19 -9 -32 -1 -16 9
-16 10 5 11 12 0 22 5 22 11 0 7 -9 9 -22 5 -13 -3 -26 -6 -30 -6 -4 0 -4 -8
-1 -17 4 -9 12 -42 18 -72 6 -31 16 -56 23 -56 7 0 12 -4 12 -10 0 -5 -4 -10
-9 -10 -17 0 -24 -15 -23 -50 1 -26 -2 -33 -13 -28 -9 3 -15 -1 -15 -8 0 -8
-6 -5 -15 7 -14 18 -14 18 -15 -7 0 -25 -16 -49 -33 -49 -10 0 0 55 15 83 9
18 11 18 29 1 10 -9 22 -14 26 -10 4 4 1 11 -7 16 -13 8 -12 10 3 10 18 0 22
25 11 68 -9 31 -19 28 -51 -17 -24 -34 -32 -39 -58 -35 -56 8 -63 10 -77 21
-15 13 -32 6 -39 -16 -4 -11 -8 -10 -22 4 -26 25 -33 15 -36 -45 0 -16 -6 -30
-11 -30 -6 0 -10 16 -8 36 3 42 -20 63 -40 37 -18 -24 -15 -128 5 -166 9 -18
18 -26 20 -19 7 19 23 14 23 -8 0 -11 7 -20 15 -20 9 0 15 9 15 25 0 14 5 25
11 25 6 0 8 -9 4 -20 -5 -16 -2 -20 17 -20 l23 0 -25 -20 c-30 -23 -24 -30 29
-37 33 -5 41 -3 41 11 0 9 5 16 10 16 6 0 10 -6 10 -14 0 -11 23 -14 104 -15
101 -2 106 -1 155 30 57 34 81 33 81 -6 0 -28 16 -34 23 -7 4 15 5 15 6 -1 1
-26 25 -16 29 12 3 21 8 23 42 17 21 -3 51 -1 67 5 15 6 57 13 93 15 36 3 72
6 81 7 9 1 16 7 16 14 0 13 -11 17 -36 14 -7 -2 -10 2 -6 9 4 6 17 9 29 7 74
-17 88 -19 82 -8 -4 6 -2 11 3 11 10 0 15 -13 13 -31 -1 -3 6 -6 14 -6 8 0 12
2 9 5 -2 2 2 11 10 19 18 17 21 108 4 98 -6 -4 -5 2 2 13 11 17 11 25 0 46 -8
14 -18 23 -22 20 -4 -2 -10 0 -14 6 -3 5 1 10 9 10 8 0 20 -8 25 -17 8 -14 10
1 11 55 0 56 -3 71 -12 66 -10 -6 -10 -4 0 7 18 20 15 51 -5 47 -10 -1 -23 1
-29 5 -7 4 -17 0 -24 -8 -14 -17 -30 -20 -30 -5 0 6 7 10 16 10 8 0 13 4 9 9
-5 10 -43 7 -54 -4 -3 -3 1 -10 9 -16 13 -8 13 -10 1 -18 -20 -13 -36 -4 -67
36 -18 24 -29 31 -34 23 -5 -7 -9 -2 -12 14 -3 15 -1 29 5 33 6 3 7 1 3 -5 -6
-9 21 -32 38 -32 18 0 1 31 -36 66 -48 45 -186 154 -197 154 -3 0 -22 -23 -41
-51z"/>
<path d="M30 460 c-9 -6 -9 -9 0 -15 14 -9 5 -51 -15 -72 -8 -8 -15 -31 -15
-51 l1 -37 23 55 c24 57 46 68 72 34 6 -8 21 -14 33 -14 14 0 21 -6 21 -20 0
-20 1 -20 25 -4 l25 16 0 -43 c0 -66 18 -34 23 41 3 55 7 67 26 76 19 10 14
12 -41 19 -35 5 -66 7 -70 7 -5 -1 -8 1 -8 6 0 9 -85 11 -100 2z"/>
</g>
</svg>
