<svg width="50" height="50" viewBox="0 0 50 50" fill="none" xmlns="http://www.w3.org/2000/svg">
<g filter="url(#filter0_d_425_2477)">
<circle cx="25" cy="21" r="21" fill="url(#paint0_linear_425_2477)"/>
<circle cx="25" cy="21" r="20.5" stroke="white"/>
</g>
<g filter="url(#filter1_d_425_2477)">
<path d="M25 31C23.896 30.9946 23.0009 30.1039 22.99 29H26.99C26.9921 29.2674 26.9411 29.5325 26.84 29.78C26.5777 30.382 26.0418 30.8211 25.4 30.96H25.395H25.38H25.362H25.353C25.2368 30.9842 25.1186 30.9976 25 31ZM33 28H17V26L19 25V19.5C18.9473 18.0891 19.2659 16.6891 19.924 15.44C20.579 14.2815 21.6987 13.4589 23 13.18V11H27V13.18C29.579 13.794 31 16.038 31 19.5V25L33 26V28Z" fill="#F2F2F2"/>
</g>
<defs>
<filter id="filter0_d_425_2477" x="0" y="0" width="50" height="50" filterUnits="userSpaceOnUse" color-interpolation-filters="sRGB">
<feFlood flood-opacity="0" result="BackgroundImageFix"/>
<feColorMatrix in="SourceAlpha" type="matrix" values="0 0 0 0 0 0 0 0 0 0 0 0 0 0 0 0 0 0 127 0" result="hardAlpha"/>
<feOffset dy="4"/>
<feGaussianBlur stdDeviation="2"/>
<feColorMatrix type="matrix" values="0 0 0 0 0 0 0 0 0 0 0 0 0 0 0 0 0 0 0.25 0"/>
<feBlend mode="normal" in2="BackgroundImageFix" result="effect1_dropShadow_425_2477"/>
<feBlend mode="normal" in="SourceGraphic" in2="effect1_dropShadow_425_2477" result="shape"/>
</filter>
<filter id="filter1_d_425_2477" x="9" y="9" width="32" height="32" filterUnits="userSpaceOnUse" color-interpolation-filters="sRGB">
<feFlood flood-opacity="0" result="BackgroundImageFix"/>
<feColorMatrix in="SourceAlpha" type="matrix" values="0 0 0 0 0 0 0 0 0 0 0 0 0 0 0 0 0 0 127 0" result="hardAlpha"/>
<feOffset dy="4"/>
<feGaussianBlur stdDeviation="2"/>
<feColorMatrix type="matrix" values="0 0 0 0 0 0 0 0 0 0 0 0 0 0 0 0 0 0 0.25 0"/>
<feBlend mode="normal" in2="BackgroundImageFix" result="effect1_dropShadow_425_2477"/>
<feBlend mode="normal" in="SourceGraphic" in2="effect1_dropShadow_425_2477" result="shape"/>
</filter>
<linearGradient id="paint0_linear_425_2477" x1="25" y1="0" x2="25" y2="42" gradientUnits="userSpaceOnUse">
<stop stop-color="#818DFF"/>
<stop offset="1" stop-color="#818DFF" stop-opacity="0.45"/>
</linearGradient>
</defs>
</svg>
